# xmcd CD database file
#
# Track frame offsets:
#	150
#	14943
#	28725
#	44265
#	65184
#	79334
#	91285
#	103713
#	122296
#	136435
#	149113
#	165798
#	179961
#	196911
#	210369
#
# Disc length: 3096 seconds
#
# Revision: 0
# Processed by: cddbd v1.5.1PL2 Copyright (c) Steve Scherf et al.
# Submitted via: CDex 1.51
#
DISCID=de0c160f
DTITLE=Tony Arata - Such Is Life
DYEAR=2005
DGENRE=Country
TTITLE0=Such Is Life
TTITLE1=Nothing Lasts Like The Past Does
TTITLE2=Here I Am
TTITLE3=Kickin' and Screamin'
TTITLE4=I'll See You There
TTITLE5=Anonymous
TTITLE6=Live And Learn
TTITLE7=Satisfied Mind
TTITLE8=Slower
TTITLE9=Night By Night
TTITLE10=The Change
TTITLE11=Handful Of Dust
TTITLE12=Don't It Make The Beer Taste Better
TTITLE13=Otis, Johnny, James and Joe
TTITLE14=Daddies And Daughters
EXTD=YEAR: 2005
EXTT0=
EXTT1=
EXTT2=
EXTT3=
EXTT4=
EXTT5=
EXTT6=
EXTT7=
EXTT8=
EXTT9=
EXTT10=
EXTT11=
EXTT12=
EXTT13=
EXTT14=
PLAYORDER=
